<svg width="165" height="24" viewBox="0 0 165 24" fill="none" xmlns="http://www.w3.org/2000/svg">
<path d="M13.981 9.67964C13.981 9.28237 13.6603 8.96118 13.2636 8.96118H10.4023C10.0056 8.96118 9.68484 9.28237 9.68484 9.67964V19.7211H13.981V9.67964ZM20.0666 11.1166C20.0666 10.7193 19.7459 10.3981 19.3492 10.3981H16.4879C16.0912 10.3981 15.7704 10.7193 15.7704 11.1166V19.7211H20.0666V11.1166ZM22.9364 21.5131H1.44694C0.856107 21.5131 0.375 21.9949 0.375 22.5865C0.375 23.1867 0.856107 23.6684 1.44694 23.6684H22.9279C23.5188 23.6684 23.9999 23.1867 23.9999 22.595C24.0083 21.9949 23.5272 21.5131 22.9364 21.5131ZM7.89546 13.2719C7.89546 12.8747 7.57473 12.5535 7.17802 12.5535H4.3167C3.92 12.5535 3.59926 12.8747 3.59926 13.2719V19.7296H7.89546V13.2719Z" fill="black"/>
<path d="M21.1048 0.00988962L17.889 0.466322C17.3742 0.542394 17.1631 1.17633 17.5261 1.54824L18.2688 2.29205L15.6692 4.8954L11.3983 1.65812C11.01 1.35383 10.4614 1.36228 10.0816 1.68347L3.27856 7.28745C2.82277 7.66781 2.75525 8.344 3.12663 8.80044C3.33764 9.06246 3.64994 9.18925 3.9538 9.18925C4.19013 9.18925 4.4349 9.11318 4.63747 8.94413L10.7821 3.88111L15.1205 7.17757C15.551 7.49876 16.1503 7.46495 16.5301 7.08459L19.7881 3.81349L20.2861 4.31219C20.6575 4.68409 21.2905 4.47278 21.3665 3.94873L21.8223 0.728348C21.8898 0.305725 21.5269 -0.0492775 21.1048 0.00988962Z" fill="white"/>
<path d="M29.12 8H33.32L34.86 12.92L35.88 16.68L38.84 8H41.32L44.4 16.78L45.54 12.92L47 8H51.18L46.18 22H42.8L41.6 18.6L40.12 14.3L38.68 18.6L37.46 22H34.12L29.12 8ZM56.5305 22.22C54.7438 22.22 53.3371 21.7667 52.3105 20.86C51.2971 19.94 50.7905 18.6867 50.7905 17.1C50.7905 16.0733 51.0171 15.1667 51.4705 14.38C51.9238 13.5933 52.5638 12.9867 53.3905 12.56C54.2171 12.12 55.1638 11.9 56.2305 11.9C57.3105 11.9 58.2505 12.1 59.0505 12.5C59.8505 12.9 60.4638 13.4667 60.8905 14.2C61.3305 14.92 61.5505 15.7533 61.5505 16.7C61.5505 17.18 61.5038 17.6333 61.4105 18.06H54.4705C54.5771 18.46 54.8238 18.7867 55.2105 19.04C55.6105 19.28 56.1171 19.4 56.7305 19.4C57.6905 19.4 58.5438 19.1467 59.2905 18.64L61.0705 20.64C59.8305 21.6933 58.3171 22.22 56.5305 22.22ZM58.0905 16.24C58.0771 15.7467 57.9171 15.36 57.6105 15.08C57.3038 14.8 56.8838 14.66 56.3505 14.66C55.8038 14.66 55.3571 14.8 55.0105 15.08C54.6771 15.36 54.5038 15.7467 54.4905 16.24H58.0905ZM67.2469 22.2C66.3535 22.2 65.5535 21.9867 64.8469 21.56C64.1402 21.12 63.5869 20.5133 63.1869 19.74C62.8002 18.9533 62.6069 18.06 62.6069 17.06C62.6069 16.06 62.8002 15.1733 63.1869 14.4C63.5869 13.6133 64.1402 13.0067 64.8469 12.58C65.5535 12.14 66.3535 11.92 67.2469 11.92C68.5135 11.92 69.5669 12.3667 70.4069 13.26L70.6069 12.12H73.7669V22H70.6069L70.4069 20.84C69.5669 21.7467 68.5135 22.2 67.2469 22.2ZM66.2069 17.06C66.2069 17.7 66.3869 18.22 66.7469 18.62C67.1202 19.0067 67.6002 19.2 68.1869 19.2C68.7735 19.2 69.2469 19.0067 69.6069 18.62C69.9802 18.22 70.1669 17.7 70.1669 17.06C70.1669 16.42 69.9802 15.9067 69.6069 15.52C69.2469 15.12 68.7735 14.92 68.1869 14.92C67.6002 14.92 67.1202 15.12 66.7469 15.52C66.3869 15.9067 66.2069 16.42 66.2069 17.06ZM75.9198 8H79.5598V22H75.9198V8ZM86.2406 22.24C83.814 22.24 82.6006 20.9067 82.6006 18.24V14.96H81.0206V12.12H82.6006V9.74L86.2206 9.34V12.12H88.4806V14.96H86.2206V18.24C86.2206 18.5733 86.3073 18.82 86.4806 18.98C86.6673 19.1267 86.914 19.2 87.2206 19.2C87.5806 19.2 87.934 19.1133 88.2806 18.94L89.1006 21.58C88.3006 22.02 87.3473 22.24 86.2406 22.24ZM90.3534 8H93.9934V13.16C94.7134 12.32 95.6868 11.9 96.9134 11.9C98.1001 11.9 99.0334 12.2933 99.7134 13.08C100.393 13.8667 100.733 14.9533 100.733 16.34V22H97.0934V16.54C97.0934 16.0333 96.9668 15.6333 96.7134 15.34C96.4601 15.0467 96.1068 14.9 95.6534 14.9C95.1468 14.9 94.7401 15.0733 94.4334 15.42C94.1401 15.7667 93.9934 16.2267 93.9934 16.8V22H90.3534V8ZM100.897 8H105.097L106.637 12.92L107.657 16.68L110.617 8H113.097L116.177 16.78L117.317 12.92L118.777 8H122.957L117.957 22H114.577L113.377 18.6L111.897 14.3L110.457 18.6L109.237 22H105.897L100.897 8ZM124.162 8H127.802V13.16C128.522 12.32 129.495 11.9 130.722 11.9C131.909 11.9 132.842 12.2933 133.522 13.08C134.202 13.8667 134.542 14.9533 134.542 16.34V22H130.902V16.54C130.902 16.0333 130.775 15.6333 130.522 15.34C130.269 15.0467 129.915 14.9 129.462 14.9C128.955 14.9 128.549 15.0733 128.242 15.42C127.949 15.7667 127.802 16.2267 127.802 16.8V22H124.162V8ZM141.823 22.22C140.037 22.22 138.63 21.7667 137.603 20.86C136.59 19.94 136.083 18.6867 136.083 17.1C136.083 16.0733 136.31 15.1667 136.763 14.38C137.217 13.5933 137.857 12.9867 138.683 12.56C139.51 12.12 140.457 11.9 141.523 11.9C142.603 11.9 143.543 12.1 144.343 12.5C145.143 12.9 145.757 13.4667 146.183 14.2C146.623 14.92 146.843 15.7533 146.843 16.7C146.843 17.18 146.797 17.6333 146.703 18.06H139.763C139.87 18.46 140.117 18.7867 140.503 19.04C140.903 19.28 141.41 19.4 142.023 19.4C142.983 19.4 143.837 19.1467 144.583 18.64L146.363 20.64C145.123 21.6933 143.61 22.22 141.823 22.22ZM143.383 16.24C143.37 15.7467 143.21 15.36 142.903 15.08C142.597 14.8 142.177 14.66 141.643 14.66C141.097 14.66 140.65 14.8 140.303 15.08C139.97 15.36 139.797 15.7467 139.783 16.24H143.383ZM153.64 22.22C151.853 22.22 150.447 21.7667 149.42 20.86C148.407 19.94 147.9 18.6867 147.9 17.1C147.9 16.0733 148.127 15.1667 148.58 14.38C149.033 13.5933 149.673 12.9867 150.5 12.56C151.327 12.12 152.273 11.9 153.34 11.9C154.42 11.9 155.36 12.1 156.16 12.5C156.96 12.9 157.573 13.4667 158 14.2C158.44 14.92 158.66 15.7533 158.66 16.7C158.66 17.18 158.613 17.6333 158.52 18.06H151.58C151.687 18.46 151.933 18.7867 152.32 19.04C152.72 19.28 153.227 19.4 153.84 19.4C154.8 19.4 155.653 19.1467 156.4 18.64L158.18 20.64C156.94 21.6933 155.427 22.22 153.64 22.22ZM155.2 16.24C155.187 15.7467 155.027 15.36 154.72 15.08C154.413 14.8 153.993 14.66 153.46 14.66C152.913 14.66 152.467 14.8 152.12 15.08C151.787 15.36 151.613 15.7467 151.6 16.24H155.2ZM160.236 8H163.876V22H160.236V8Z" fill="black"/>
</svg>
